<?xml version="1.0" encoding="UTF-8" standalone="no"?>
<!-- Created with Inkscape (http://www.inkscape.org/) -->

<svg
   width="400"
   height="400"
   viewBox="0 0 105.83333 105.83333"
   version="1.1"
   id="svg1"
   inkscape:version="1.4 (86a8ad7, 2024-10-11)"
   sodipodi:docname="logo.svg"
   xmlns:inkscape="http://www.inkscape.org/namespaces/inkscape"
   xmlns:sodipodi="http://sodipodi.sourceforge.net/DTD/sodipodi-0.dtd"
   xmlns="http://www.w3.org/2000/svg"
   xmlns:svg="http://www.w3.org/2000/svg">
  <sodipodi:namedview
     id="namedview1"
     pagecolor="#ffffff"
     bordercolor="#000000"
     borderopacity="0.25"
     inkscape:showpageshadow="2"
     inkscape:pageopacity="0.0"
     inkscape:pagecheckerboard="0"
     inkscape:deskcolor="#d1d1d1"
     inkscape:document-units="px"
     inkscape:zoom="1.4378367"
     inkscape:cx="104.32339"
     inkscape:cy="237.50959"
     inkscape:window-width="1920"
     inkscape:window-height="1009"
     inkscape:window-x="-8"
     inkscape:window-y="-8"
     inkscape:window-maximized="1"
     inkscape:current-layer="layer1" />
  <defs
     id="defs1">
    <inkscape:path-effect
       effect="copy_rotate"
       starting_point="112.96883,114.39"
       origin="82.79,114.39"
       id="path-effect2"
       is_visible="true"
       lpeversion="1.2"
       lpesatellites=""
       method="normal"
       num_copies="5"
       starting_angle="0"
       rotation_angle="72"
       gap="0"
       copies_to_360="true"
       mirror_copies="false"
       split_items="false"
       link_styles="false" />
    <linearGradient
       id="swatch1"
       inkscape:swatch="solid">
      <stop
         style="stop-color:#000000;stop-opacity:1;"
         offset="0"
         id="stop1" />
    </linearGradient>
    <inkscape:path-effect
       effect="copy_rotate"
       starting_point="223.99643,114.39"
       origin="82.79,114.39"
       id="path-effect2-4"
       is_visible="true"
       lpeversion="1.2"
       lpesatellites=""
       method="normal"
       num_copies="5"
       starting_angle="0"
       rotation_angle="72"
       gap="0"
       copies_to_360="true"
       mirror_copies="false"
       split_items="false"
       link_styles="false" />
  </defs>
  <g
     inkscape:label="Warstwa 1"
     inkscape:groupmode="layer"
     id="layer1"
     style="display:inline">
    <path
       d="m 108.56857,75.813977 c -16.666956,2.39e-4 -30.178053,13.511567 -30.178006,30.178523 -4.5e-5,16.66695 13.511052,30.17828 30.178006,30.17852 16.66716,5e-5 30.17857,-13.51136 30.17852,-30.17852 5e-5,-16.667156 -13.51136,-30.178568 -30.17852,-30.178523 z M 54.068038,77.952476 C 48.917893,93.803767 57.592771,110.82881 73.444002,115.97914 89.295204,121.12956 106.3204,112.45497 111.471,96.603828 116.62147,80.752436 107.94662,63.727066 92.095195,58.576675 76.243802,53.426196 59.21843,62.101055 54.068038,77.952476 Z M 39.260281,130.44639 c 13.483991,9.7964 32.356458,6.80713 42.153011,-6.67675 C 91.209918,110.28582 88.22097,91.413304 74.737261,81.616521 61.253276,71.819777 42.380508,74.80893 32.583837,88.292968 22.78709,101.77695 25.776242,120.64972 39.260281,130.44639 Z m 45.348835,30.30453 c 13.48371,-9.79678 16.472654,-28.6693 6.676029,-42.15312 -9.796553,-13.48388 -28.669019,-16.47315 -42.153009,-6.67675 -13.484038,9.79667 -16.473191,28.66944 -6.676446,42.15342 9.796671,13.48404 28.66944,16.4732 42.153426,6.67645 z m 42.834874,-33.76469 c -5.1506,-15.85114 -22.17579,-24.52573 -38.026993,-19.37531 -15.85123,5.15033 -24.526107,22.17537 -19.375962,38.02666 5.150391,15.85142 22.175761,24.52628 38.027155,19.3758 15.85142,-5.15039 24.52628,-22.17576 19.3758,-38.02715 z"
       style="display:inline;fill:none;fill-opacity:0;stroke:none;stroke-width:1.05833;stroke-dasharray:none"
       id="path2"
       inkscape:path-effect="#path-effect2"
       inkscape:original-d="M 108.56857,75.813977 A 30.178438,30.178438 0 0 0 78.390564,105.9925 30.178438,30.178438 0 0 0 108.56857,136.17102 30.178438,30.178438 0 0 0 138.74709,105.9925 30.178438,30.178438 0 0 0 108.56857,75.813977 Z"
       transform="translate(23.708085,13.436561)" />
    <path
       id="path15"
       style="fill:#e09999;fill-opacity:1;stroke:none;stroke-width:0.346934;stroke-dasharray:none;stroke-opacity:1"
       d="m 58.749327,55.98486 c -0.468236,-0.498167 -1.094091,-1.135691 -1.390786,-1.416712 l -0.539454,-0.510955 0.177158,-0.895277 c 0.155112,-0.78383 0.423685,-2.615766 0.428416,-2.922186 0.002,-0.132869 0.343015,-0.2828 1.673913,-0.73607 3.286329,-1.119246 6.974447,-1.627061 10.214769,-1.406476 1.283189,0.08735 3.790005,0.407386 3.875948,0.494825 0.124279,0.126446 -2.249078,2.341842 -3.724515,3.476626 -2.51556,1.934764 -5.193559,3.34638 -8.26518,4.356707 -1.711083,0.562813 -1.465818,0.606906 -2.450269,-0.440482 z m 5.576891,16.469907 c -2.534632,-1.347821 -4.703374,-2.975805 -6.778143,-5.088085 -1.420974,-1.446657 -2.430139,-2.672803 -3.416543,-4.151116 l -0.566769,-0.849414 0.558645,-1.052665 c 0.307248,-0.578969 0.703372,-1.393609 0.88027,-1.810318 l 0.321634,-0.757647 0.600291,-0.0582 c 0.629935,-0.06107 2.347661,-0.337798 2.935685,-0.472949 l 0.3445,-0.07918 0.643478,0.843503 c 2.323337,3.045557 4.067134,6.693468 4.981894,10.421824 0.307737,1.254263 0.690308,3.387743 0.636881,3.551694 -0.01683,0.05165 -0.527771,-0.170923 -1.141823,-0.497453 z m -23.909165,0.24068 c 0.722141,-5.233662 2.58498,-9.759824 5.717912,-13.892864 l 0.500085,-0.659729 1.000641,0.199705 c 0.550359,0.109843 1.425288,0.2476 1.944294,0.306132 l 0.943649,0.10642 0.372915,0.858753 c 0.20511,0.47232 0.602932,1.281864 0.884069,1.798991 l 0.511142,0.940233 -0.577383,0.873091 c -1.177388,1.780393 -2.487933,3.327627 -4.192866,4.95012 -1.766277,1.680866 -3.705313,3.078989 -5.825276,4.20025 -0.673691,0.356322 -1.247318,0.647854 -1.274732,0.647854 -0.02741,0 -0.02939,-0.148029 -0.0042,-0.328956 z M 44.905948,56.53245 c -4.265511,-1.343483 -8.083995,-3.654549 -11.214973,-6.787662 -0.750965,-0.751481 -1.01971,-1.072601 -0.93719,-1.119843 0.06364,-0.03641 0.653203,-0.150784 1.310155,-0.254134 1.501645,-0.236224 4.974387,-0.332187 6.51416,-0.179995 2.230474,0.220457 4.501428,0.728757 6.600385,1.477349 l 1.200586,0.428185 0.180535,1.26632 c 0.09929,0.696471 0.24551,1.586791 0.324928,1.978485 l 0.144398,0.712168 -0.623739,0.603667 c -0.343062,0.332016 -0.966848,0.968808 -1.386196,1.415096 -0.419349,0.446281 -0.82515,0.808402 -0.901775,0.804708 -0.07662,-0.0037 -0.621697,-0.158652 -1.211274,-0.344344 z m 7.59,-5.590124 c -0.416592,-0.278494 -2.820437,-1.515199 -2.945164,-1.515199 -0.16334,0 -0.210259,-0.803088 -0.158535,-2.713675 0.120126,-4.437567 1.018992,-8.119344 2.939281,-12.039345 l 0.564049,-1.151426 0.218824,0.386178 c 0.12035,0.212398 0.410523,0.800666 0.644824,1.307264 1.494103,3.230466 2.352998,6.530024 2.634998,10.122722 0.09926,1.264536 0.115744,3.164057 0.03194,3.682862 -0.05338,0.330625 -0.0778,0.351077 -0.865893,0.72524 -0.446023,0.211763 -1.225223,0.62118 -1.731556,0.909817 -0.50633,0.288642 -0.936293,0.522479 -0.955475,0.519643 -0.01918,-0.0026 -0.188971,-0.108173 -0.377312,-0.234081 z M 52.449001,30.693181 C 51.010973,28.513214 48.808449,26.122099 46.602413,24.345941 41.62523,20.338637 35.402462,18.115205 29.153163,18.111227 l -1.474412,-9.75e-4 0.283612,-0.635987 c 0.757826,-1.69939 2.139542,-3.957679 3.448432,-5.636153 0.964687,-1.237078 2.981281,-3.2999075 4.19063,-4.2867126 4.19047,-3.4193347 9.134637,-5.5006302 14.535651,-6.1189232 1.430603,-0.16377 4.412605,-0.1403299 5.874286,0.046177 9.016522,1.150484 16.607595,6.3334439 20.98048,14.3248492 0.478123,0.873762 1.104977,2.154159 1.101143,2.249139 -2.51e-4,0.0076 -0.721062,0.0216 -1.601677,0.0312 -9.177058,0.100006 -17.599954,4.659292 -23.030139,12.466136 l -0.567948,0.816529 z M 9.2211132,67.167044 C 6.2200003,64.007141 4.1654957,60.617591 2.8052179,56.582 1.7792124,53.53811 1.3231361,50.702413 1.3229167,47.36565 1.3226702,42.91698 2.2190048,38.970368 4.132204,34.996815 8.1454487,26.661654 15.776374,20.920826 24.710405,19.515607 c 0.613158,-0.09645 1.154569,-0.175768 1.203141,-0.17628 0.04857,-5.04e-4 -0.06034,0.462904 -0.242027,1.029809 -1.287238,4.016488 -1.732025,8.655558 -1.221645,12.741651 0.629903,5.043041 2.544532,9.937446 5.429598,13.879815 0.390361,0.533417 0.699082,0.977897 0.686046,0.987726 -0.01305,0.0099 -0.371014,0.125454 -0.795507,0.256932 -7.568225,2.344166 -13.826175,7.75774 -17.34898,15.008115 -0.682439,1.404551 -1.246213,2.827392 -1.659703,4.18872 -0.157532,0.518652 -0.310367,0.943004 -0.339631,0.943015 -0.02927,10e-6 -0.5695254,-0.543624 -1.2005838,-1.208066 z M 35.687177,104.42556 C 30.158298,103.85817 25.393474,101.91666 20.980018,98.432863 19.827072,97.522779 17.370407,95.00808 16.456053,93.802019 13.07292,89.33958 11.094545,84.286681 10.60495,78.857934 10.479247,77.464096 10.499525,74.840983 10.647,73.419156 c 0.135991,-1.311143 0.369574,-2.766962 0.460381,-2.869353 0.03036,-0.03427 0.50905,0.269673 1.063761,0.675326 7.525651,5.503478 17.119764,6.972229 25.885051,3.962699 l 1.082673,-0.371732 0.04573,2.196367 c 0.06637,3.188282 0.450863,5.520636 1.388816,8.424636 1.978154,6.124557 5.61125,11.133625 10.785091,14.869781 l 0.578264,0.41757 -1.264308,0.66035 c -2.980266,1.55659 -5.76322,2.44737 -9.110991,2.9163 -1.168658,0.16369 -4.752102,0.23961 -5.874283,0.12446 z m 30.357638,0.0314 c -3.580018,-0.2348 -7.185319,-1.24351 -10.545622,-2.95054 -1.535945,-0.78027 -1.543778,-0.78572 -1.332707,-0.92684 0.605564,-0.40489 2.026522,-1.525466 2.745313,-2.164973 5.497284,-4.890975 8.897849,-11.624667 9.699065,-19.205767 0.05609,-0.530714 0.106037,-1.744499 0.110991,-2.69729 0.0047,-0.952796 0.01407,-1.73242 0.02027,-1.732516 0.0061,-9.1e-5 0.264315,0.09729 0.573642,0.216379 1.599305,0.615781 3.93556,1.178221 6.005477,1.445788 5.57155,0.720201 11.073882,-0.192462 16.049248,-2.662083 1.952824,-0.969331 3.325347,-1.819721 4.871897,-3.01857 0.274086,-0.212467 0.510893,-0.372265 0.526229,-0.355112 0.05282,0.05903 0.383821,2.137899 0.486887,3.057599 0.157868,1.408758 0.134106,4.549653 -0.04543,6.008968 -0.979182,7.95779 -4.877323,14.827873 -11.087024,19.539796 -5.067628,3.845301 -11.755864,5.859811 -18.078182,5.445161 z M 95.085851,67.342716 c -0.986931,-3.231095 -2.799896,-6.70117 -4.938248,-9.45195 -0.946089,-1.217042 -3.41164,-3.707383 -4.593294,-4.63947 -2.904911,-2.29139 -6.010075,-3.959597 -9.261647,-4.975696 -0.448076,-0.140022 -0.862918,-0.272508 -0.921878,-0.294409 -0.06797,-0.02526 0.141423,-0.385922 0.572188,-0.985594 3.950462,-5.49948 5.954031,-12.315449 5.580209,-18.983305 -0.15015,-2.678143 -0.650976,-5.418353 -1.408968,-7.708938 -0.167643,-0.506598 -0.304976,-0.936053 -0.305179,-0.95435 -0.0011,-0.07766 1.334463,0.105197 2.486547,0.340496 5.345445,1.091751 10.018658,3.621966 13.921546,7.537531 4.669443,4.684613 7.426793,10.480404 8.162023,17.156076 0.24668,2.239815 0.13741,5.574836 -0.25829,7.883081 -0.81586,4.759247 -2.98068,9.51608 -5.993737,13.170254 -0.524858,0.636537 -2.631981,2.852258 -2.709633,2.849284 -0.02428,-0.0011 -0.1735,-0.425281 -0.331639,-0.94301 z" />
  </g>
</svg>
